<svg xmlns="http://www.w3.org/2000/svg" xmlns:xlink="http://www.w3.org/1999/xlink" width="24" height="24" viewBox="0 0 24 24">
  <defs>
    <clipPath id="clip-ic_coin">
      <rect width="24" height="24"/>
    </clipPath>
  </defs>
  <g id="ic_coin" clip-path="url(#clip-ic_coin)">
    <g id="Group_6" data-name="Group 6" transform="translate(-33.454 -59.681)">
      <g id="Group_5" data-name="Group 5" transform="translate(35.454 61.681)">
        <circle id="Ellipse_10" data-name="Ellipse 10" cx="10" cy="10" r="10" transform="translate(0 0)" fill="#f6b545"/>
      </g>
      <path id="Path_29" data-name="Path 29" d="M289.272,325.818a10,10,0,1,0,10,10A9.938,9.938,0,0,0,289.272,325.818Zm0,17.143a7.143,7.143,0,1,1,7.143-7.143A7.073,7.073,0,0,1,289.272,342.961Z" transform="translate(-243.818 -264.137)" fill="#ffcb5b"/>
      <path id="Path_30" data-name="Path 30" d="M360.727,417.466h0a10.153,10.153,0,0,0,10.341-10.193h-.148a1.571,1.571,0,0,0-1.477,1.33,8.932,8.932,0,0,1-2.807,5.318,8.371,8.371,0,0,1-4.58,2.216A1.324,1.324,0,0,0,360.727,417.466Z" transform="translate(-315.614 -335.933)" fill="#f6b545"/>
      <path id="Path_31" data-name="Path 31" d="M289.613,326.959h0a10.153,10.153,0,0,0-10.341,10.193h.148a1.571,1.571,0,0,0,1.477-1.33A8.932,8.932,0,0,1,283.7,330.5a8.371,8.371,0,0,1,4.58-2.216A1.324,1.324,0,0,0,289.613,326.959Z" transform="translate(-243.818 -265.13)" fill="#ffe27a"/>
      <path id="Path_32" data-name="Path 32" d="M303.579,357.511a7.315,7.315,0,0,1,7.386-7.386,6.968,6.968,0,0,1,4.727,1.773,7.363,7.363,0,0,0-13.148,4.58,7.083,7.083,0,0,0,2.659,5.614A6.928,6.928,0,0,1,303.579,357.511Z" transform="translate(-264.136 -284.455)" fill="#f19920"/>
      <path id="Path_33" data-name="Path 33" d="M391.065,406.772a.543.543,0,0,1-.443-.148.714.714,0,0,1,0-1.034,4.93,4.93,0,0,0,1.33-3.4.739.739,0,0,1,1.477,0,6.821,6.821,0,0,1-1.625,4.432A1.606,1.606,0,0,1,391.065,406.772Z" transform="translate(-341.382 -330.597)" fill="#ffcb5b"/>
      <path id="Path_34" data-name="Path 34" d="M350.568,381.228a1.4,1.4,0,0,1-1.477-1.477v-5.909a1.477,1.477,0,1,1,2.954,0v5.909A1.4,1.4,0,0,1,350.568,381.228Z" transform="translate(-305.114 -305.115)" fill="#f19920"/>
    </g>
  </g>
</svg>